<svg xmlns="http://www.w3.org/2000/svg" version="1.1" xmlns:xlink="http://www.w3.org/1999/xlink" xmlns:svgjs="http://svgjs.com/svgjs" width="1440" height="560" preserveAspectRatio="none" viewBox="0 0 1440 560"><g mask="url(&quot;#SvgjsMask1002&quot;)" fill="none"><path d="M-61.63 363.05L-61.63 363.05" stroke="#132e65" stroke-width="1.5"></path><path d="M-61.63 363.05L43.53 398.53" stroke="#132e65" stroke-width="1.5"></path><path d="M-61.63 363.05L-86.58 555.23" stroke="#132e65" stroke-width="1.5"></path><path d="M-61.63 363.05L107.52 537.49" stroke="#132e65" stroke-width="1.5"></path><path d="M-61.63 363.05L-47.03 649.86" stroke="#132e65" stroke-width="1.5"></path><path d="M-86.58 555.23L-86.58 555.23" stroke="#132e65" stroke-width="1.5"></path><path d="M-86.58 555.23L-47.03 649.86" stroke="#132e65" stroke-width="1.5"></path><path d="M-86.58 555.23L107.52 537.49" stroke="#132e65" stroke-width="1.5"></path><path d="M-47.03 649.86L-47.03 649.86" stroke="#132e65" stroke-width="1.5"></path><path d="M-47.03 649.86L98.04 663.03" stroke="#132e65" stroke-width="1.5"></path><path d="M43.53 398.53L43.53 398.53" stroke="#132e65" stroke-width="1.5"></path><path d="M43.53 398.53L107.52 537.49" stroke="#132e65" stroke-width="1.5"></path><path d="M43.53 398.53L-86.58 555.23" stroke="#132e65" stroke-width="1.5"></path><path d="M107.52 537.49L107.52 537.49" stroke="#132e65" stroke-width="1.5"></path><path d="M107.52 537.49L98.04 663.03" stroke="#132e65" stroke-width="1.5"></path><path d="M107.52 537.49L237.29 504.83" stroke="#132e65" stroke-width="1.5"></path><path d="M98.04 663.03L98.04 663.03" stroke="#132e65" stroke-width="1.5"></path><path d="M98.04 663.03L246.58 670.87" stroke="#132e65" stroke-width="1.5"></path><path d="M98.04 663.03L237.29 504.83" stroke="#132e65" stroke-width="1.5"></path><path d="M98.04 663.03L-86.58 555.23" stroke="#132e65" stroke-width="1.5"></path><path d="M237.29 504.83L237.29 504.83" stroke="#132e65" stroke-width="1.5"></path><path d="M237.29 504.83L375.99 510" stroke="#132e65" stroke-width="1.5"></path><path d="M246.58 670.87L246.58 670.87" stroke="#132e65" stroke-width="1.5"></path><path d="M246.58 670.87L375.49 684.08" stroke="#132e65" stroke-width="1.5"></path><path d="M246.58 670.87L237.29 504.83" stroke="#132e65" stroke-width="1.5"></path><path d="M246.58 670.87L107.52 537.49" stroke="#132e65" stroke-width="1.5"></path><path d="M366.93 410.11L366.93 410.11" stroke="#132e65" stroke-width="1.5"></path><path d="M366.93 410.11L375.99 510" stroke="#132e65" stroke-width="1.5"></path><path d="M366.93 410.11L237.29 504.83" stroke="#132e65" stroke-width="1.5"></path><path d="M366.93 410.11L562.16 362.77" stroke="#132e65" stroke-width="1.5"></path><path d="M375.99 510L375.99 510" stroke="#132e65" stroke-width="1.5"></path><path d="M375.99 510L507.74 560.9" stroke="#132e65" stroke-width="1.5"></path><path d="M375.99 510L375.49 684.08" stroke="#132e65" stroke-width="1.5"></path><path d="M375.49 684.08L375.49 684.08" stroke="#132e65" stroke-width="1.5"></path><path d="M375.49 684.08L509.96 705.82" stroke="#132e65" stroke-width="1.5"></path><path d="M562.16 362.77L562.16 362.77" stroke="#132e65" stroke-width="1.5"></path><path d="M562.16 362.77L666.06 404.26" stroke="#132e65" stroke-width="1.5"></path><path d="M562.16 362.77L638.27 509.25" stroke="#132e65" stroke-width="1.5"></path><path d="M507.74 560.9L507.74 560.9" stroke="#132e65" stroke-width="1.5"></path><path d="M507.74 560.9L638.27 509.25" stroke="#132e65" stroke-width="1.5"></path><path d="M509.96 705.82L509.96 705.82" stroke="#132e65" stroke-width="1.5"></path><path d="M509.96 705.82L507.74 560.9" stroke="#132e65" stroke-width="1.5"></path><path d="M509.96 705.82L645.39 650.04" stroke="#132e65" stroke-width="1.5"></path><path d="M509.96 705.82L638.27 509.25" stroke="#132e65" stroke-width="1.5"></path><path d="M509.96 705.82L375.99 510" stroke="#132e65" stroke-width="1.5"></path><path d="M509.96 705.82L246.58 670.87" stroke="#132e65" stroke-width="1.5"></path><path d="M693.8 255.86L693.8 255.86" stroke="#132e65" stroke-width="1.5"></path><path d="M693.8 255.86L832.81 211.87" stroke="#132e65" stroke-width="1.5"></path><path d="M693.8 255.86L666.06 404.26" stroke="#132e65" stroke-width="1.5"></path><path d="M693.8 255.86L562.16 362.77" stroke="#132e65" stroke-width="1.5"></path><path d="M693.8 255.86L842.17 354.4" stroke="#132e65" stroke-width="1.5"></path><path d="M666.06 404.26L666.06 404.26" stroke="#132e65" stroke-width="1.5"></path><path d="M666.06 404.26L638.27 509.25" stroke="#132e65" stroke-width="1.5"></path><path d="M666.06 404.26L842.17 354.4" stroke="#132e65" stroke-width="1.5"></path><path d="M666.06 404.26L824.47 505.23" stroke="#132e65" stroke-width="1.5"></path><path d="M638.27 509.25L638.27 509.25" stroke="#132e65" stroke-width="1.5"></path><path d="M638.27 509.25L645.39 650.04" stroke="#132e65" stroke-width="1.5"></path><path d="M645.39 650.04L645.39 650.04" stroke="#132e65" stroke-width="1.5"></path><path d="M645.39 650.04L507.74 560.9" stroke="#132e65" stroke-width="1.5"></path><path d="M645.39 650.04L817.85 707.18" stroke="#132e65" stroke-width="1.5"></path><path d="M832.81 211.87L832.81 211.87" stroke="#132e65" stroke-width="1.5"></path><path d="M832.81 211.87L842.17 354.4" stroke="#132e65" stroke-width="1.5"></path><path d="M842.17 354.4L842.17 354.4" stroke="#132e65" stroke-width="1.5"></path><path d="M842.17 354.4L980.62 402.05" stroke="#132e65" stroke-width="1.5"></path><path d="M842.17 354.4L824.47 505.23" stroke="#132e65" stroke-width="1.5"></path><path d="M824.47 505.23L824.47 505.23" stroke="#132e65" stroke-width="1.5"></path><path d="M824.47 505.23L638.27 509.25" stroke="#132e65" stroke-width="1.5"></path><path d="M824.47 505.23L980.62 402.05" stroke="#132e65" stroke-width="1.5"></path><path d="M817.85 707.18L817.85 707.18" stroke="#132e65" stroke-width="1.5"></path><path d="M817.85 707.18L1010.65 703.59" stroke="#132e65" stroke-width="1.5"></path><path d="M817.85 707.18L824.47 505.23" stroke="#132e65" stroke-width="1.5"></path><path d="M817.85 707.18L638.27 509.25" stroke="#132e65" stroke-width="1.5"></path><path d="M1003.56 -87.79L1003.56 -87.79" stroke="#132e65" stroke-width="1.5"></path><path d="M1003.56 -87.79L1134.84 -44.66" stroke="#132e65" stroke-width="1.5"></path><path d="M1003.56 -87.79L1004.85 76.52" stroke="#132e65" stroke-width="1.5"></path><path d="M1003.56 -87.79L1148.59 80.58" stroke="#132e65" stroke-width="1.5"></path><path d="M1003.56 -87.79L1269.23 -50.45" stroke="#132e65" stroke-width="1.5"></path><path d="M1004.85 76.52L1004.85 76.52" stroke="#132e65" stroke-width="1.5"></path><path d="M1004.85 76.52L1148.59 80.58" stroke="#132e65" stroke-width="1.5"></path><path d="M1004.85 76.52L1134.84 -44.66" stroke="#132e65" stroke-width="1.5"></path><path d="M999 260.69L999 260.69" stroke="#132e65" stroke-width="1.5"></path><path d="M999 260.69L980.62 402.05" stroke="#132e65" stroke-width="1.5"></path><path d="M999 260.69L1160.74 215.37" stroke="#132e65" stroke-width="1.5"></path><path d="M999 260.69L832.81 211.87" stroke="#132e65" stroke-width="1.5"></path><path d="M999 260.69L842.17 354.4" stroke="#132e65" stroke-width="1.5"></path><path d="M999 260.69L1004.85 76.52" stroke="#132e65" stroke-width="1.5"></path><path d="M980.62 402.05L980.62 402.05" stroke="#132e65" stroke-width="1.5"></path><path d="M980.62 402.05L1136.99 386.85" stroke="#132e65" stroke-width="1.5"></path><path d="M980.62 402.05L1146 552.18" stroke="#132e65" stroke-width="1.5"></path><path d="M980.62 402.05L832.81 211.87" stroke="#132e65" stroke-width="1.5"></path><path d="M1010.65 703.59L1010.65 703.59" stroke="#132e65" stroke-width="1.5"></path><path d="M1010.65 703.59L1115.81 690.53" stroke="#132e65" stroke-width="1.5"></path><path d="M1010.65 703.59L1146 552.18" stroke="#132e65" stroke-width="1.5"></path><path d="M1134.84 -44.66L1134.84 -44.66" stroke="#132e65" stroke-width="1.5"></path><path d="M1134.84 -44.66L1148.59 80.58" stroke="#132e65" stroke-width="1.5"></path><path d="M1134.84 -44.66L1269.23 -50.45" stroke="#132e65" stroke-width="1.5"></path><path d="M1134.84 -44.66L1257.81 59.94" stroke="#132e65" stroke-width="1.5"></path><path d="M1134.84 -44.66L1160.74 215.37" stroke="#132e65" stroke-width="1.5"></path><path d="M1148.59 80.58L1148.59 80.58" stroke="#132e65" stroke-width="1.5"></path><path d="M1148.59 80.58L1257.81 59.94" stroke="#132e65" stroke-width="1.5"></path><path d="M1148.59 80.58L1160.74 215.37" stroke="#132e65" stroke-width="1.5"></path><path d="M1148.59 80.58L1267.44 206.34" stroke="#132e65" stroke-width="1.5"></path><path d="M1148.59 80.58L1269.23 -50.45" stroke="#132e65" stroke-width="1.5"></path><path d="M1160.74 215.37L1160.74 215.37" stroke="#132e65" stroke-width="1.5"></path><path d="M1160.74 215.37L1267.44 206.34" stroke="#132e65" stroke-width="1.5"></path><path d="M1160.74 215.37L1136.99 386.85" stroke="#132e65" stroke-width="1.5"></path><path d="M1136.99 386.85L1136.99 386.85" stroke="#132e65" stroke-width="1.5"></path><path d="M1136.99 386.85L1274.24 371.3" stroke="#132e65" stroke-width="1.5"></path><path d="M1136.99 386.85L1146 552.18" stroke="#132e65" stroke-width="1.5"></path><path d="M1146 552.18L1146 552.18" stroke="#132e65" stroke-width="1.5"></path><path d="M1146 552.18L1280.66 521.86" stroke="#132e65" stroke-width="1.5"></path><path d="M1146 552.18L1115.81 690.53" stroke="#132e65" stroke-width="1.5"></path><path d="M1146 552.18L1297.01 640.96" stroke="#132e65" stroke-width="1.5"></path><path d="M1115.81 690.53L1115.81 690.53" stroke="#132e65" stroke-width="1.5"></path><path d="M1115.81 690.53L1297.01 640.96" stroke="#132e65" stroke-width="1.5"></path><path d="M1115.81 690.53L1280.66 521.86" stroke="#132e65" stroke-width="1.5"></path><path d="M1269.23 -50.45L1269.23 -50.45" stroke="#132e65" stroke-width="1.5"></path><path d="M1269.23 -50.45L1257.81 59.94" stroke="#132e65" stroke-width="1.5"></path><path d="M1269.23 -50.45L1451.96 -76.56" stroke="#132e65" stroke-width="1.5"></path><path d="M1269.23 -50.45L1446.97 74.69" stroke="#132e65" stroke-width="1.5"></path><path d="M1269.23 -50.45L1267.44 206.34" stroke="#132e65" stroke-width="1.5"></path><path d="M1257.81 59.94L1257.81 59.94" stroke="#132e65" stroke-width="1.5"></path><path d="M1257.81 59.94L1267.44 206.34" stroke="#132e65" stroke-width="1.5"></path><path d="M1257.81 59.94L1160.74 215.37" stroke="#132e65" stroke-width="1.5"></path><path d="M1267.44 206.34L1267.44 206.34" stroke="#132e65" stroke-width="1.5"></path><path d="M1267.44 206.34L1422.19 252.32" stroke="#132e65" stroke-width="1.5"></path><path d="M1274.24 371.3L1274.24 371.3" stroke="#132e65" stroke-width="1.5"></path><path d="M1274.24 371.3L1421.28 396.88" stroke="#132e65" stroke-width="1.5"></path><path d="M1274.24 371.3L1280.66 521.86" stroke="#132e65" stroke-width="1.5"></path><path d="M1274.24 371.3L1267.44 206.34" stroke="#132e65" stroke-width="1.5"></path><path d="M1274.24 371.3L1422.19 252.32" stroke="#132e65" stroke-width="1.5"></path><path d="M1274.24 371.3L1160.74 215.37" stroke="#132e65" stroke-width="1.5"></path><path d="M1280.66 521.86L1280.66 521.86" stroke="#132e65" stroke-width="1.5"></path><path d="M1280.66 521.86L1297.01 640.96" stroke="#132e65" stroke-width="1.5"></path><path d="M1280.66 521.86L1460.6 521.67" stroke="#132e65" stroke-width="1.5"></path><path d="M1297.01 640.96L1297.01 640.96" stroke="#132e65" stroke-width="1.5"></path><path d="M1297.01 640.96L1405.04 667.99" stroke="#132e65" stroke-width="1.5"></path><path d="M1451.96 -76.56L1451.96 -76.56" stroke="#132e65" stroke-width="1.5"></path><path d="M1451.96 -76.56L1589.56 -59.05" stroke="#132e65" stroke-width="1.5"></path><path d="M1451.96 -76.56L1446.97 74.69" stroke="#132e65" stroke-width="1.5"></path><path d="M1451.96 -76.56L1563.93 46.68" stroke="#132e65" stroke-width="1.5"></path><path d="M1451.96 -76.56L1257.81 59.94" stroke="#132e65" stroke-width="1.5"></path><path d="M1446.97 74.69L1446.97 74.69" stroke="#132e65" stroke-width="1.5"></path><path d="M1446.97 74.69L1563.93 46.68" stroke="#132e65" stroke-width="1.5"></path><path d="M1422.19 252.32L1422.19 252.32" stroke="#132e65" stroke-width="1.5"></path><path d="M1422.19 252.32L1421.28 396.88" stroke="#132e65" stroke-width="1.5"></path><path d="M1422.19 252.32L1446.97 74.69" stroke="#132e65" stroke-width="1.5"></path><path d="M1422.19 252.32L1600.52 198.38" stroke="#132e65" stroke-width="1.5"></path><path d="M1421.28 396.88L1421.28 396.88" stroke="#132e65" stroke-width="1.5"></path><path d="M1421.28 396.88L1460.6 521.67" stroke="#132e65" stroke-width="1.5"></path><path d="M1421.28 396.88L1603.68 370.89" stroke="#132e65" stroke-width="1.5"></path><path d="M1460.6 521.67L1460.6 521.67" stroke="#132e65" stroke-width="1.5"></path><path d="M1460.6 521.67L1570.7 528.92" stroke="#132e65" stroke-width="1.5"></path><path d="M1405.04 667.99L1405.04 667.99" stroke="#132e65" stroke-width="1.5"></path><path d="M1405.04 667.99L1460.6 521.67" stroke="#132e65" stroke-width="1.5"></path><path d="M1405.04 667.99L1280.66 521.86" stroke="#132e65" stroke-width="1.5"></path><path d="M1405.04 667.99L1600.58 708" stroke="#132e65" stroke-width="1.5"></path><path d="M1405.04 667.99L1570.7 528.92" stroke="#132e65" stroke-width="1.5"></path><path d="M1405.04 667.99L1421.28 396.88" stroke="#132e65" stroke-width="1.5"></path><path d="M1589.56 -59.05L1589.56 -59.05" stroke="#132e65" stroke-width="1.5"></path><path d="M1589.56 -59.05L1563.93 46.68" stroke="#132e65" stroke-width="1.5"></path><path d="M1563.93 46.68L1563.93 46.68" stroke="#132e65" stroke-width="1.5"></path><path d="M1600.52 198.38L1600.52 198.38" stroke="#132e65" stroke-width="1.5"></path><path d="M1600.52 198.38L1563.93 46.68" stroke="#132e65" stroke-width="1.5"></path><path d="M1600.52 198.38L1603.68 370.89" stroke="#132e65" stroke-width="1.5"></path><path d="M1600.52 198.38L1446.97 74.69" stroke="#132e65" stroke-width="1.5"></path><path d="M1603.68 370.89L1603.68 370.89" stroke="#132e65" stroke-width="1.5"></path><path d="M1603.68 370.89L1570.7 528.92" stroke="#132e65" stroke-width="1.5"></path><path d="M1603.68 370.89L1460.6 521.67" stroke="#132e65" stroke-width="1.5"></path><path d="M1603.68 370.89L1422.19 252.32" stroke="#132e65" stroke-width="1.5"></path><path d="M1603.68 370.89L1563.93 46.68" stroke="#132e65" stroke-width="1.5"></path><path d="M1570.7 528.92L1570.7 528.92" stroke="#132e65" stroke-width="1.5"></path><path d="M1570.7 528.92L1600.58 708" stroke="#132e65" stroke-width="1.5"></path><path d="M1600.58 708L1600.58 708" stroke="#132e65" stroke-width="1.5"></path><path d="M1600.58 708L1460.6 521.67" stroke="#132e65" stroke-width="1.5"></path><circle r="5" cx="-61.63" cy="363.05" fill="#132e65"></circle><circle r="5" cx="-86.58" cy="555.23" fill="#132e65"></circle><circle r="5" cx="-47.03" cy="649.86" fill="#132e65"></circle><circle r="5" cx="43.53" cy="398.53" fill="#132e65"></circle><circle r="5" cx="107.52" cy="537.49" fill="#132e65"></circle><circle r="5" cx="98.04" cy="663.03" fill="#132e65"></circle><circle r="5" cx="237.29" cy="504.83" fill="#132e65"></circle><circle r="5" cx="246.58" cy="670.87" fill="#132e65"></circle><circle r="5" cx="366.93" cy="410.11" fill="#132e65"></circle><circle r="5" cx="375.99" cy="510" fill="#132e65"></circle><circle r="5" cx="375.49" cy="684.08" fill="#132e65"></circle><circle r="5" cx="562.16" cy="362.77" fill="#132e65"></circle><circle r="5" cx="507.74" cy="560.9" fill="#132e65"></circle><circle r="5" cx="509.96" cy="705.82" fill="#132e65"></circle><circle r="5" cx="693.8" cy="255.86" fill="#132e65"></circle><circle r="5" cx="666.06" cy="404.26" fill="#132e65"></circle><circle r="5" cx="638.27" cy="509.25" fill="#132e65"></circle><circle r="5" cx="645.39" cy="650.04" fill="#132e65"></circle><circle r="5" cx="832.81" cy="211.87" fill="#132e65"></circle><circle r="5" cx="842.17" cy="354.4" fill="#132e65"></circle><circle r="5" cx="824.47" cy="505.23" fill="#132e65"></circle><circle r="5" cx="817.85" cy="707.18" fill="#132e65"></circle><circle r="5" cx="1003.56" cy="-87.79" fill="#132e65"></circle><circle r="5" cx="1004.85" cy="76.52" fill="#132e65"></circle><circle r="5" cx="999" cy="260.69" fill="#132e65"></circle><circle r="5" cx="980.62" cy="402.05" fill="#132e65"></circle><circle r="5" cx="1010.65" cy="703.59" fill="#132e65"></circle><circle r="5" cx="1134.84" cy="-44.66" fill="#132e65"></circle><circle r="5" cx="1148.59" cy="80.58" fill="#132e65"></circle><circle r="5" cx="1160.74" cy="215.37" fill="#132e65"></circle><circle r="5" cx="1136.99" cy="386.85" fill="#132e65"></circle><circle r="5" cx="1146" cy="552.18" fill="#132e65"></circle><circle r="5" cx="1115.81" cy="690.53" fill="#132e65"></circle><circle r="5" cx="1269.23" cy="-50.45" fill="#132e65"></circle><circle r="5" cx="1257.81" cy="59.94" fill="#132e65"></circle><circle r="5" cx="1267.44" cy="206.34" fill="#132e65"></circle><circle r="5" cx="1274.24" cy="371.3" fill="#132e65"></circle><circle r="5" cx="1280.66" cy="521.86" fill="#132e65"></circle><circle r="5" cx="1297.01" cy="640.96" fill="#132e65"></circle><circle r="5" cx="1451.96" cy="-76.56" fill="#132e65"></circle><circle r="5" cx="1446.97" cy="74.69" fill="#132e65"></circle><circle r="5" cx="1422.19" cy="252.32" fill="#132e65"></circle><circle r="5" cx="1421.28" cy="396.88" fill="#132e65"></circle><circle r="5" cx="1460.6" cy="521.67" fill="#132e65"></circle><circle r="5" cx="1405.04" cy="667.99" fill="#132e65"></circle><circle r="5" cx="1589.56" cy="-59.05" fill="#132e65"></circle><circle r="5" cx="1563.93" cy="46.68" fill="#132e65"></circle><circle r="5" cx="1600.52" cy="198.38" fill="#132e65"></circle><circle r="5" cx="1603.68" cy="370.89" fill="#132e65"></circle><circle r="5" cx="1570.7" cy="528.92" fill="#132e65"></circle><circle r="5" cx="1600.58" cy="708" fill="#132e65"></circle><path d="M67.85 654.29L67.85 654.29" stroke="hsl(228.5, 77.2%, 51.5%)" stroke-width="1.5"></path><path d="M67.85 654.29L49.55 508.41" stroke="hsl(228.5, 77.2%, 51.5%)" stroke-width="1.5"></path><path d="M67.85 654.29L218.84 675.79" stroke="hsl(228.5, 77.2%, 51.5%)" stroke-width="1.5"></path><path d="M67.85 654.29L208.22 491.17" stroke="hsl(228.5, 77.2%, 51.5%)" stroke-width="1.5"></path><path d="M67.85 654.29L-107.94 494.47" stroke="hsl(228.5, 77.2%, 51.5%)" stroke-width="1.5"></path><path d="M798.71 373.52L798.71 373.52" stroke="hsl(228.5, 77.2%, 51.5%)" stroke-width="1.5"></path><path d="M798.71 373.52L685.48 494.9" stroke="hsl(228.5, 77.2%, 51.5%)" stroke-width="1.5"></path><path d="M798.71 373.52L825.48 551.87" stroke="hsl(228.5, 77.2%, 51.5%)" stroke-width="1.5"></path><path d="M798.71 373.52L991.51 353.91" stroke="hsl(228.5, 77.2%, 51.5%)" stroke-width="1.5"></path><path d="M798.71 373.52L981.54 492.05" stroke="hsl(228.5, 77.2%, 51.5%)" stroke-width="1.5"></path><path d="M798.71 373.52L546.95 399.17" stroke="hsl(228.5, 77.2%, 51.5%)" stroke-width="1.5"></path><path d="M798.71 373.52L698.61 654.17" stroke="hsl(228.5, 77.2%, 51.5%)" stroke-width="1.5"></path><path d="M1255.72 488.58L1255.72 488.58" stroke="hsl(228.5, 77.2%, 51.5%)" stroke-width="1.5"></path><path d="M1255.72 488.58L1252.53 369.28" stroke="hsl(228.5, 77.2%, 51.5%)" stroke-width="1.5"></path><path d="M1255.72 488.58L1131.06 404.09" stroke="hsl(228.5, 77.2%, 51.5%)" stroke-width="1.5"></path><path d="M1255.72 488.58L1110.42 543.38" stroke="hsl(228.5, 77.2%, 51.5%)" stroke-width="1.5"></path><path d="M1255.72 488.58L1421.43 397.26" stroke="hsl(228.5, 77.2%, 51.5%)" stroke-width="1.5"></path><path d="M1255.72 488.58L1277.14 681.72" stroke="hsl(228.5, 77.2%, 51.5%)" stroke-width="1.5"></path><path d="M1410.69 197.22L1410.69 197.22" stroke="hsl(228.5, 77.2%, 51.5%)" stroke-width="1.5"></path><path d="M1410.69 197.22L1259.09 199.29" stroke="hsl(228.5, 77.2%, 51.5%)" stroke-width="1.5"></path><path d="M1410.69 197.22L1393.5 40.31" stroke="hsl(228.5, 77.2%, 51.5%)" stroke-width="1.5"></path><path d="M1410.69 197.22L1421.43 397.26" stroke="hsl(228.5, 77.2%, 51.5%)" stroke-width="1.5"></path><path d="M1579.05 361.85L1579.05 361.85" stroke="hsl(228.5, 77.2%, 51.5%)" stroke-width="1.5"></path><path d="M1579.05 361.85L1604.95 251.27" stroke="hsl(228.5, 77.2%, 51.5%)" stroke-width="1.5"></path><path d="M1579.05 361.85L1421.43 397.26" stroke="hsl(228.5, 77.2%, 51.5%)" stroke-width="1.5"></path><path d="M1579.05 361.85L1452.08 492.53" stroke="hsl(228.5, 77.2%, 51.5%)" stroke-width="1.5"></path><path d="M1579.05 361.85L1556.59 559.72" stroke="hsl(228.5, 77.2%, 51.5%)" stroke-width="1.5"></path><path d="M-107.94 494.47L-107.94 494.47" stroke="hsl(228.5, 77.2%, 51.5%)" stroke-width="1.5"></path><path d="M-107.94 494.47L49.55 508.41" stroke="hsl(228.5, 77.2%, 51.5%)" stroke-width="1.5"></path><path d="M-107.94 494.47L208.22 491.17" stroke="hsl(228.5, 77.2%, 51.5%)" stroke-width="1.5"></path><path d="M49.55 508.41L49.55 508.41" stroke="hsl(228.5, 77.2%, 51.5%)" stroke-width="1.5"></path><path d="M49.55 508.41L208.22 491.17" stroke="hsl(228.5, 77.2%, 51.5%)" stroke-width="1.5"></path><path d="M49.55 508.41L218.84 675.79" stroke="hsl(228.5, 77.2%, 51.5%)" stroke-width="1.5"></path><path d="M208.22 491.17L208.22 491.17" stroke="hsl(228.5, 77.2%, 51.5%)" stroke-width="1.5"></path><path d="M208.22 491.17L351.32 549.9" stroke="hsl(228.5, 77.2%, 51.5%)" stroke-width="1.5"></path><path d="M208.22 491.17L218.84 675.79" stroke="hsl(228.5, 77.2%, 51.5%)" stroke-width="1.5"></path><path d="M218.84 675.79L218.84 675.79" stroke="hsl(228.5, 77.2%, 51.5%)" stroke-width="1.5"></path><path d="M218.84 675.79L363.94 652.97" stroke="hsl(228.5, 77.2%, 51.5%)" stroke-width="1.5"></path><path d="M351.32 549.9L351.32 549.9" stroke="hsl(228.5, 77.2%, 51.5%)" stroke-width="1.5"></path><path d="M351.32 549.9L363.94 652.97" stroke="hsl(228.5, 77.2%, 51.5%)" stroke-width="1.5"></path><path d="M351.32 549.9L509.96 511.14" stroke="hsl(228.5, 77.2%, 51.5%)" stroke-width="1.5"></path><path d="M351.32 549.9L218.84 675.79" stroke="hsl(228.5, 77.2%, 51.5%)" stroke-width="1.5"></path><path d="M363.94 652.97L363.94 652.97" stroke="hsl(228.5, 77.2%, 51.5%)" stroke-width="1.5"></path><path d="M363.94 652.97L561.55 682.07" stroke="hsl(228.5, 77.2%, 51.5%)" stroke-width="1.5"></path><path d="M363.94 652.97L509.96 511.14" stroke="hsl(228.5, 77.2%, 51.5%)" stroke-width="1.5"></path><path d="M363.94 652.97L208.22 491.17" stroke="hsl(228.5, 77.2%, 51.5%)" stroke-width="1.5"></path><path d="M363.94 652.97L67.85 654.29" stroke="hsl(228.5, 77.2%, 51.5%)" stroke-width="1.5"></path><path d="M546.95 399.17L546.95 399.17" stroke="hsl(228.5, 77.2%, 51.5%)" stroke-width="1.5"></path><path d="M546.95 399.17L509.96 511.14" stroke="hsl(228.5, 77.2%, 51.5%)" stroke-width="1.5"></path><path d="M546.95 399.17L685.48 494.9" stroke="hsl(228.5, 77.2%, 51.5%)" stroke-width="1.5"></path><path d="M509.96 511.14L509.96 511.14" stroke="hsl(228.5, 77.2%, 51.5%)" stroke-width="1.5"></path><path d="M509.96 511.14L685.48 494.9" stroke="hsl(228.5, 77.2%, 51.5%)" stroke-width="1.5"></path><path d="M509.96 511.14L561.55 682.07" stroke="hsl(228.5, 77.2%, 51.5%)" stroke-width="1.5"></path><path d="M561.55 682.07L561.55 682.07" stroke="hsl(228.5, 77.2%, 51.5%)" stroke-width="1.5"></path><path d="M561.55 682.07L698.61 654.17" stroke="hsl(228.5, 77.2%, 51.5%)" stroke-width="1.5"></path><path d="M561.55 682.07L685.48 494.9" stroke="hsl(228.5, 77.2%, 51.5%)" stroke-width="1.5"></path><path d="M685.48 494.9L685.48 494.9" stroke="hsl(228.5, 77.2%, 51.5%)" stroke-width="1.5"></path><path d="M685.48 494.9L825.48 551.87" stroke="hsl(228.5, 77.2%, 51.5%)" stroke-width="1.5"></path><path d="M685.48 494.9L698.61 654.17" stroke="hsl(228.5, 77.2%, 51.5%)" stroke-width="1.5"></path><path d="M698.61 654.17L698.61 654.17" stroke="hsl(228.5, 77.2%, 51.5%)" stroke-width="1.5"></path><path d="M698.61 654.17L793.47 686.92" stroke="hsl(228.5, 77.2%, 51.5%)" stroke-width="1.5"></path><path d="M698.61 654.17L825.48 551.87" stroke="hsl(228.5, 77.2%, 51.5%)" stroke-width="1.5"></path><path d="M825.48 551.87L825.48 551.87" stroke="hsl(228.5, 77.2%, 51.5%)" stroke-width="1.5"></path><path d="M825.48 551.87L793.47 686.92" stroke="hsl(228.5, 77.2%, 51.5%)" stroke-width="1.5"></path><path d="M793.47 686.92L793.47 686.92" stroke="hsl(228.5, 77.2%, 51.5%)" stroke-width="1.5"></path><path d="M793.47 686.92L1008.37 696.76" stroke="hsl(228.5, 77.2%, 51.5%)" stroke-width="1.5"></path><path d="M793.47 686.92L685.48 494.9" stroke="hsl(228.5, 77.2%, 51.5%)" stroke-width="1.5"></path><path d="M991.51 353.91L991.51 353.91" stroke="hsl(228.5, 77.2%, 51.5%)" stroke-width="1.5"></path><path d="M991.51 353.91L981.54 492.05" stroke="hsl(228.5, 77.2%, 51.5%)" stroke-width="1.5"></path><path d="M991.51 353.91L1131.06 404.09" stroke="hsl(228.5, 77.2%, 51.5%)" stroke-width="1.5"></path><path d="M991.51 353.91L1118.83 228.42" stroke="hsl(228.5, 77.2%, 51.5%)" stroke-width="1.5"></path><path d="M981.54 492.05L981.54 492.05" stroke="hsl(228.5, 77.2%, 51.5%)" stroke-width="1.5"></path><path d="M981.54 492.05L1110.42 543.38" stroke="hsl(228.5, 77.2%, 51.5%)" stroke-width="1.5"></path><path d="M981.54 492.05L825.48 551.87" stroke="hsl(228.5, 77.2%, 51.5%)" stroke-width="1.5"></path><path d="M981.54 492.05L1131.06 404.09" stroke="hsl(228.5, 77.2%, 51.5%)" stroke-width="1.5"></path><path d="M981.54 492.05L1091.48 663.11" stroke="hsl(228.5, 77.2%, 51.5%)" stroke-width="1.5"></path><path d="M981.54 492.05L1008.37 696.76" stroke="hsl(228.5, 77.2%, 51.5%)" stroke-width="1.5"></path><path d="M1008.37 696.76L1008.37 696.76" stroke="hsl(228.5, 77.2%, 51.5%)" stroke-width="1.5"></path><path d="M1008.37 696.76L1091.48 663.11" stroke="hsl(228.5, 77.2%, 51.5%)" stroke-width="1.5"></path><path d="M1008.37 696.76L1110.42 543.38" stroke="hsl(228.5, 77.2%, 51.5%)" stroke-width="1.5"></path><path d="M1118.83 228.42L1118.83 228.42" stroke="hsl(228.5, 77.2%, 51.5%)" stroke-width="1.5"></path><path d="M1118.83 228.42L1259.09 199.29" stroke="hsl(228.5, 77.2%, 51.5%)" stroke-width="1.5"></path><path d="M1118.83 228.42L1131.06 404.09" stroke="hsl(228.5, 77.2%, 51.5%)" stroke-width="1.5"></path><path d="M1118.83 228.42L1252.53 369.28" stroke="hsl(228.5, 77.2%, 51.5%)" stroke-width="1.5"></path><path d="M1118.83 228.42L1410.69 197.22" stroke="hsl(228.5, 77.2%, 51.5%)" stroke-width="1.5"></path><path d="M1131.06 404.09L1131.06 404.09" stroke="hsl(228.5, 77.2%, 51.5%)" stroke-width="1.5"></path><path d="M1131.06 404.09L1252.53 369.28" stroke="hsl(228.5, 77.2%, 51.5%)" stroke-width="1.5"></path><path d="M1131.06 404.09L1110.42 543.38" stroke="hsl(228.5, 77.2%, 51.5%)" stroke-width="1.5"></path><path d="M1110.42 543.38L1110.42 543.38" stroke="hsl(228.5, 77.2%, 51.5%)" stroke-width="1.5"></path><path d="M1110.42 543.38L1091.48 663.11" stroke="hsl(228.5, 77.2%, 51.5%)" stroke-width="1.5"></path><path d="M1091.48 663.11L1091.48 663.11" stroke="hsl(228.5, 77.2%, 51.5%)" stroke-width="1.5"></path><path d="M1091.48 663.11L1277.14 681.72" stroke="hsl(228.5, 77.2%, 51.5%)" stroke-width="1.5"></path><path d="M1275.49 -88.61L1275.49 -88.61" stroke="hsl(228.5, 77.2%, 51.5%)" stroke-width="1.5"></path><path d="M1275.49 -88.61L1410.72 -86.83" stroke="hsl(228.5, 77.2%, 51.5%)" stroke-width="1.5"></path><path d="M1275.49 -88.61L1393.5 40.31" stroke="hsl(228.5, 77.2%, 51.5%)" stroke-width="1.5"></path><path d="M1275.49 -88.61L1259.09 199.29" stroke="hsl(228.5, 77.2%, 51.5%)" stroke-width="1.5"></path><path d="M1259.09 199.29L1259.09 199.29" stroke="hsl(228.5, 77.2%, 51.5%)" stroke-width="1.5"></path><path d="M1259.09 199.29L1252.53 369.28" stroke="hsl(228.5, 77.2%, 51.5%)" stroke-width="1.5"></path><path d="M1259.09 199.29L1393.5 40.31" stroke="hsl(228.5, 77.2%, 51.5%)" stroke-width="1.5"></path><path d="M1252.53 369.28L1252.53 369.28" stroke="hsl(228.5, 77.2%, 51.5%)" stroke-width="1.5"></path><path d="M1277.14 681.72L1277.14 681.72" stroke="hsl(228.5, 77.2%, 51.5%)" stroke-width="1.5"></path><path d="M1277.14 681.72L1403.02 690.65" stroke="hsl(228.5, 77.2%, 51.5%)" stroke-width="1.5"></path><path d="M1277.14 681.72L1110.42 543.38" stroke="hsl(228.5, 77.2%, 51.5%)" stroke-width="1.5"></path><path d="M1277.14 681.72L1452.08 492.53" stroke="hsl(228.5, 77.2%, 51.5%)" stroke-width="1.5"></path><path d="M1410.72 -86.83L1410.72 -86.83" stroke="hsl(228.5, 77.2%, 51.5%)" stroke-width="1.5"></path><path d="M1410.72 -86.83L1393.5 40.31" stroke="hsl(228.5, 77.2%, 51.5%)" stroke-width="1.5"></path><path d="M1410.72 -86.83L1601.37 -67.45" stroke="hsl(228.5, 77.2%, 51.5%)" stroke-width="1.5"></path><path d="M1410.72 -86.83L1600.49 90.86" stroke="hsl(228.5, 77.2%, 51.5%)" stroke-width="1.5"></path><path d="M1410.72 -86.83L1410.69 197.22" stroke="hsl(228.5, 77.2%, 51.5%)" stroke-width="1.5"></path><path d="M1393.5 40.31L1393.5 40.31" stroke="hsl(228.5, 77.2%, 51.5%)" stroke-width="1.5"></path><path d="M1393.5 40.31L1600.49 90.86" stroke="hsl(228.5, 77.2%, 51.5%)" stroke-width="1.5"></path><path d="M1393.5 40.31L1601.37 -67.45" stroke="hsl(228.5, 77.2%, 51.5%)" stroke-width="1.5"></path><path d="M1421.43 397.26L1421.43 397.26" stroke="hsl(228.5, 77.2%, 51.5%)" stroke-width="1.5"></path><path d="M1421.43 397.26L1452.08 492.53" stroke="hsl(228.5, 77.2%, 51.5%)" stroke-width="1.5"></path><path d="M1421.43 397.26L1252.53 369.28" stroke="hsl(228.5, 77.2%, 51.5%)" stroke-width="1.5"></path><path d="M1452.08 492.53L1452.08 492.53" stroke="hsl(228.5, 77.2%, 51.5%)" stroke-width="1.5"></path><path d="M1452.08 492.53L1556.59 559.72" stroke="hsl(228.5, 77.2%, 51.5%)" stroke-width="1.5"></path><path d="M1403.02 690.65L1403.02 690.65" stroke="hsl(228.5, 77.2%, 51.5%)" stroke-width="1.5"></path><path d="M1403.02 690.65L1580.7 707.03" stroke="hsl(228.5, 77.2%, 51.5%)" stroke-width="1.5"></path><path d="M1403.02 690.65L1556.59 559.72" stroke="hsl(228.5, 77.2%, 51.5%)" stroke-width="1.5"></path><path d="M1601.37 -67.45L1601.37 -67.45" stroke="hsl(228.5, 77.2%, 51.5%)" stroke-width="1.5"></path><path d="M1601.37 -67.45L1600.49 90.86" stroke="hsl(228.5, 77.2%, 51.5%)" stroke-width="1.5"></path><path d="M1601.37 -67.45L1604.95 251.27" stroke="hsl(228.5, 77.2%, 51.5%)" stroke-width="1.5"></path><path d="M1601.37 -67.45L1410.69 197.22" stroke="hsl(228.5, 77.2%, 51.5%)" stroke-width="1.5"></path><path d="M1601.37 -67.45L1275.49 -88.61" stroke="hsl(228.5, 77.2%, 51.5%)" stroke-width="1.5"></path><path d="M1600.49 90.86L1600.49 90.86" stroke="hsl(228.5, 77.2%, 51.5%)" stroke-width="1.5"></path><path d="M1600.49 90.86L1604.95 251.27" stroke="hsl(228.5, 77.2%, 51.5%)" stroke-width="1.5"></path><path d="M1604.95 251.27L1604.95 251.27" stroke="hsl(228.5, 77.2%, 51.5%)" stroke-width="1.5"></path><path d="M1604.95 251.27L1410.69 197.22" stroke="hsl(228.5, 77.2%, 51.5%)" stroke-width="1.5"></path><path d="M1556.59 559.72L1556.59 559.72" stroke="hsl(228.5, 77.2%, 51.5%)" stroke-width="1.5"></path><path d="M1556.59 559.72L1580.7 707.03" stroke="hsl(228.5, 77.2%, 51.5%)" stroke-width="1.5"></path><path d="M1580.7 707.03L1580.7 707.03" stroke="hsl(228.5, 77.2%, 51.5%)" stroke-width="1.5"></path><path d="M1580.7 707.03L1452.08 492.53" stroke="hsl(228.5, 77.2%, 51.5%)" stroke-width="1.5"></path><path d="M1580.7 707.03L1277.14 681.72" stroke="hsl(228.5, 77.2%, 51.5%)" stroke-width="1.5"></path><path d="M1580.7 707.03L1579.05 361.85" stroke="hsl(228.5, 77.2%, 51.5%)" stroke-width="1.5"></path><circle r="25" cx="67.85" cy="654.29" fill="url(#SvgjsRadialGradient1003)"></circle><circle r="25" cx="798.71" cy="373.52" fill="url(#SvgjsRadialGradient1003)"></circle><circle r="25" cx="1255.72" cy="488.58" fill="url(#SvgjsRadialGradient1003)"></circle><circle r="25" cx="1410.69" cy="197.22" fill="url(#SvgjsRadialGradient1003)"></circle><circle r="25" cx="1579.05" cy="361.85" fill="url(#SvgjsRadialGradient1003)"></circle><circle r="5" cx="-107.94" cy="494.47" fill="#8b9ad9"></circle><circle r="5" cx="49.55" cy="508.41" fill="#8b9ad9"></circle><circle r="5" cx="208.22" cy="491.17" fill="#8b9ad9"></circle><circle r="5" cx="218.84" cy="675.79" fill="#8b9ad9"></circle><circle r="5" cx="351.32" cy="549.9" fill="#8b9ad9"></circle><circle r="5" cx="363.94" cy="652.97" fill="#8b9ad9"></circle><circle r="5" cx="546.95" cy="399.17" fill="#8b9ad9"></circle><circle r="5" cx="509.96" cy="511.14" fill="#8b9ad9"></circle><circle r="5" cx="561.55" cy="682.07" fill="#8b9ad9"></circle><circle r="5" cx="685.48" cy="494.9" fill="#8b9ad9"></circle><circle r="5" cx="698.61" cy="654.17" fill="#8b9ad9"></circle><circle r="5" cx="825.48" cy="551.87" fill="#8b9ad9"></circle><circle r="5" cx="793.47" cy="686.92" fill="#8b9ad9"></circle><circle r="5" cx="991.51" cy="353.91" fill="#8b9ad9"></circle><circle r="5" cx="981.54" cy="492.05" fill="#8b9ad9"></circle><circle r="5" cx="1008.37" cy="696.76" fill="#8b9ad9"></circle><circle r="5" cx="1118.83" cy="228.42" fill="#8b9ad9"></circle><circle r="5" cx="1131.06" cy="404.09" fill="#8b9ad9"></circle><circle r="5" cx="1110.42" cy="543.38" fill="#8b9ad9"></circle><circle r="5" cx="1091.48" cy="663.11" fill="#8b9ad9"></circle><circle r="5" cx="1275.49" cy="-88.61" fill="#8b9ad9"></circle><circle r="5" cx="1259.09" cy="199.29" fill="#8b9ad9"></circle><circle r="5" cx="1252.53" cy="369.28" fill="#8b9ad9"></circle><circle r="5" cx="1277.14" cy="681.72" fill="#8b9ad9"></circle><circle r="5" cx="1410.72" cy="-86.83" fill="#8b9ad9"></circle><circle r="5" cx="1393.5" cy="40.31" fill="#8b9ad9"></circle><circle r="5" cx="1421.43" cy="397.26" fill="#8b9ad9"></circle><circle r="5" cx="1452.08" cy="492.53" fill="#8b9ad9"></circle><circle r="5" cx="1403.02" cy="690.65" fill="#8b9ad9"></circle><circle r="5" cx="1601.37" cy="-67.45" fill="#8b9ad9"></circle><circle r="5" cx="1600.49" cy="90.86" fill="#8b9ad9"></circle><circle r="5" cx="1604.95" cy="251.27" fill="#8b9ad9"></circle><circle r="5" cx="1556.59" cy="559.72" fill="#8b9ad9"></circle><circle r="5" cx="1580.7" cy="707.03" fill="#8b9ad9"></circle></g><defs><mask id="SvgjsMask1002"><rect width="1440" height="560" fill="#ffffff"></rect></mask><radialGradient id="SvgjsRadialGradient1003"><stop stop-color="#ffffff" offset="0.1"></stop><stop stop-color="#1735b3" offset="0.2"></stop><stop stop-color="rgba(23, 53, 179, 0)" offset="1"></stop></radialGradient></defs></svg>