<svg xmlns="http://www.w3.org/2000/svg" version="1.1" xmlns:xlink="http://www.w3.org/1999/xlink" xmlns:svgjs="http://svgjs.com/svgjs" width="1440" height="600" preserveAspectRatio="none" viewBox="0 0 1440 600"><g mask="url(&quot;#SvgjsMask1009&quot;)" fill="none"><rect width="1440" height="600" x="0" y="0" fill="#0e2a47"></rect><path d="M67 600L667 0L1064.5 0L464.5 600z" fill="url(#SvgjsLinearGradient1010)"></path><path d="M476.20000000000005 600L1076.2 0L1691.2 0L1091.2 600z" fill="url(#SvgjsLinearGradient1010)"></path><path d="M1366 600L766 0L196 0L796 600z" fill="url(#SvgjsLinearGradient1011)"></path><path d="M874.8 600L274.79999999999995 0L88.79999999999995 0L688.8 600z" fill="url(#SvgjsLinearGradient1011)"></path><path d="M901.3833514130656 600L1440 61.38335141306561L1440 600z" fill="url(#SvgjsLinearGradient1010)"></path><path d="M0 600L538.6166485869344 600L 0 61.38335141306561z" fill="url(#SvgjsLinearGradient1011)"></path></g><defs><mask id="SvgjsMask1009"><rect width="1440" height="600" fill="#ffffff"></rect></mask><linearGradient x1="0%" y1="100%" x2="100%" y2="0%" id="SvgjsLinearGradient1010"><stop stop-color="rgba(15, 70, 185, 0.2)" offset="0"></stop><stop stop-opacity="0" stop-color="rgba(15, 70, 185, 0.2)" offset="0.66"></stop></linearGradient><linearGradient x1="100%" y1="100%" x2="0%" y2="0%" id="SvgjsLinearGradient1011"><stop stop-color="rgba(15, 70, 185, 0.2)" offset="0"></stop><stop stop-opacity="0" stop-color="rgba(15, 70, 185, 0.2)" offset="0.66"></stop></linearGradient></defs></svg>