<svg xmlns="http://www.w3.org/2000/svg" version="1.1" xmlns:xlink="http://www.w3.org/1999/xlink" xmlns:svgjs="http://svgjs.dev/svgjs" width="1440" height="560" preserveAspectRatio="none" viewBox="0 0 1440 560"><g mask="url(&quot;#SvgjsMask1000&quot;)" fill="none"><path d="M47.56 -15.22L112.51 22.28L112.51 97.28L47.56 134.78L-17.39 97.28L-17.39 22.28zM112.51 97.28L177.47 134.78L177.47 209.78L112.51 247.28L47.56 209.78L47.56 134.78zM47.56 209.78L112.51 247.28L112.51 322.28L47.56 359.78L-17.39 322.28L-17.39 247.28zM112.51 547.28L177.47 584.78L177.47 659.78L112.51 697.28L47.56 659.78L47.56 584.78zM177.47 434.78L242.42 472.28L242.42 547.28L177.47 584.78L112.51 547.28L112.51 472.28zM307.38 -15.22L372.33 22.28L372.33 97.28L307.38 134.78L242.42 97.28L242.42 22.28zM372.33 97.28L437.28 134.78L437.28 209.78L372.33 247.28L307.38 209.78L307.38 134.78zM307.38 209.78L372.33 247.28L372.33 322.28L307.38 359.78L242.42 322.28L242.42 247.28zM372.33 322.28L437.28 359.78L437.28 434.78L372.33 472.28L307.38 434.78L307.38 359.78zM307.38 434.78L372.33 472.28L372.33 547.28L307.38 584.78L242.42 547.28L242.42 472.28zM437.28 -15.22L502.24 22.28L502.24 97.28L437.28 134.78L372.33 97.28L372.33 22.28zM437.28 209.78L502.24 247.28L502.24 322.28L437.28 359.78L372.33 322.28L372.33 247.28zM502.24 322.28L567.19 359.78L567.19 434.78L502.24 472.28L437.28 434.78L437.28 359.78zM437.28 434.78L502.24 472.28L502.24 547.28L437.28 584.78L372.33 547.28L372.33 472.28zM502.24 547.28L567.19 584.78L567.19 659.78L502.24 697.28L437.28 659.78L437.28 584.78zM567.19 -15.22L632.14 22.28L632.14 97.28L567.19 134.78L502.24 97.28L502.24 22.28zM632.14 97.28L697.1 134.78L697.1 209.78L632.14 247.28L567.19 209.78L567.19 134.78zM567.19 209.78L632.14 247.28L632.14 322.28L567.19 359.78L502.24 322.28L502.24 247.28zM632.14 322.28L697.1 359.78L697.1 434.78L632.14 472.28L567.19 434.78L567.19 359.78zM567.19 434.78L632.14 472.28L632.14 547.28L567.19 584.78L502.24 547.28L502.24 472.28zM697.1 -15.22L762.05 22.28L762.05 97.28L697.1 134.78L632.14 97.28L632.14 22.28zM891.96 97.28L956.91 134.78L956.91 209.78L891.96 247.28L827 209.78L827 134.78zM827 209.78L891.96 247.28L891.96 322.28L827 359.78L762.05 322.28L762.05 247.28zM827 434.78L891.96 472.28L891.96 547.28L827 584.78L762.05 547.28L762.05 472.28zM891.96 547.28L956.91 584.78L956.91 659.78L891.96 697.28L827 659.78L827 584.78zM1021.87 97.28L1086.82 134.78L1086.82 209.78L1021.87 247.28L956.91 209.78L956.91 134.78zM1021.87 322.28L1086.82 359.78L1086.82 434.78L1021.87 472.28L956.91 434.78L956.91 359.78zM1021.87 547.28L1086.82 584.78L1086.82 659.78L1021.87 697.28L956.91 659.78L956.91 584.78zM1086.82 -15.22L1151.77 22.28L1151.77 97.28L1086.82 134.78L1021.87 97.28L1021.87 22.28zM1281.68 322.28L1346.63 359.78L1346.63 434.78L1281.68 472.28L1216.73 434.78L1216.73 359.78zM1216.73 434.78L1281.68 472.28L1281.68 547.28L1216.73 584.78L1151.77 547.28L1151.77 472.28zM1281.68 547.28L1346.63 584.78L1346.63 659.78L1281.68 697.28L1216.73 659.78L1216.73 584.78zM1346.63 -15.22L1411.59 22.28L1411.59 97.28L1346.63 134.78L1281.68 97.28L1281.68 22.28zM1346.63 209.78L1411.59 247.28L1411.59 322.28L1346.63 359.78L1281.68 322.28L1281.68 247.28zM1411.59 322.28L1476.54 359.78L1476.54 434.78L1411.59 472.28L1346.63 434.78L1346.63 359.78zM1411.59 547.28L1476.54 584.78L1476.54 659.78L1411.59 697.28L1346.63 659.78L1346.63 584.78zM1541.5 322.28L1606.45 359.78L1606.45 434.78L1541.5 472.28L1476.54 434.78L1476.54 359.78zM1476.54 434.78L1541.5 472.28L1541.5 547.28L1476.54 584.78L1411.59 547.28L1411.59 472.28z" stroke="#03305d" stroke-width="2"></path><path d="M40.06 -15.22 a7.5 7.5 0 1 0 15 0 a7.5 7.5 0 1 0 -15 0zM105.01 22.28 a7.5 7.5 0 1 0 15 0 a7.5 7.5 0 1 0 -15 0zM105.01 97.28 a7.5 7.5 0 1 0 15 0 a7.5 7.5 0 1 0 -15 0zM40.06 134.78 a7.5 7.5 0 1 0 15 0 a7.5 7.5 0 1 0 -15 0zM-24.89 97.28 a7.5 7.5 0 1 0 15 0 a7.5 7.5 0 1 0 -15 0zM-24.89 22.28 a7.5 7.5 0 1 0 15 0 a7.5 7.5 0 1 0 -15 0zM169.97 134.78 a7.5 7.5 0 1 0 15 0 a7.5 7.5 0 1 0 -15 0zM169.97 209.78 a7.5 7.5 0 1 0 15 0 a7.5 7.5 0 1 0 -15 0zM105.01 247.28 a7.5 7.5 0 1 0 15 0 a7.5 7.5 0 1 0 -15 0zM40.06 209.78 a7.5 7.5 0 1 0 15 0 a7.5 7.5 0 1 0 -15 0zM105.01 322.28 a7.5 7.5 0 1 0 15 0 a7.5 7.5 0 1 0 -15 0zM40.06 359.78 a7.5 7.5 0 1 0 15 0 a7.5 7.5 0 1 0 -15 0zM-24.89 322.28 a7.5 7.5 0 1 0 15 0 a7.5 7.5 0 1 0 -15 0zM-24.89 247.28 a7.5 7.5 0 1 0 15 0 a7.5 7.5 0 1 0 -15 0zM105.01 547.28 a7.5 7.5 0 1 0 15 0 a7.5 7.5 0 1 0 -15 0zM169.97 584.78 a7.5 7.5 0 1 0 15 0 a7.5 7.5 0 1 0 -15 0zM169.97 659.78 a7.5 7.5 0 1 0 15 0 a7.5 7.5 0 1 0 -15 0zM105.01 697.28 a7.5 7.5 0 1 0 15 0 a7.5 7.5 0 1 0 -15 0zM40.06 659.78 a7.5 7.5 0 1 0 15 0 a7.5 7.5 0 1 0 -15 0zM40.06 584.78 a7.5 7.5 0 1 0 15 0 a7.5 7.5 0 1 0 -15 0zM169.97 434.78 a7.5 7.5 0 1 0 15 0 a7.5 7.5 0 1 0 -15 0zM234.92 472.28 a7.5 7.5 0 1 0 15 0 a7.5 7.5 0 1 0 -15 0zM234.92 547.28 a7.5 7.5 0 1 0 15 0 a7.5 7.5 0 1 0 -15 0zM105.01 472.28 a7.5 7.5 0 1 0 15 0 a7.5 7.5 0 1 0 -15 0zM299.88 -15.22 a7.5 7.5 0 1 0 15 0 a7.5 7.5 0 1 0 -15 0zM364.83 22.28 a7.5 7.5 0 1 0 15 0 a7.5 7.5 0 1 0 -15 0zM364.83 97.28 a7.5 7.5 0 1 0 15 0 a7.5 7.5 0 1 0 -15 0zM299.88 134.78 a7.5 7.5 0 1 0 15 0 a7.5 7.5 0 1 0 -15 0zM234.92 97.28 a7.5 7.5 0 1 0 15 0 a7.5 7.5 0 1 0 -15 0zM234.92 22.28 a7.5 7.5 0 1 0 15 0 a7.5 7.5 0 1 0 -15 0zM429.78 134.78 a7.5 7.5 0 1 0 15 0 a7.5 7.5 0 1 0 -15 0zM429.78 209.78 a7.5 7.5 0 1 0 15 0 a7.5 7.5 0 1 0 -15 0zM364.83 247.28 a7.5 7.5 0 1 0 15 0 a7.5 7.5 0 1 0 -15 0zM299.88 209.78 a7.5 7.5 0 1 0 15 0 a7.5 7.5 0 1 0 -15 0zM364.83 322.28 a7.5 7.5 0 1 0 15 0 a7.5 7.5 0 1 0 -15 0zM299.88 359.78 a7.5 7.5 0 1 0 15 0 a7.5 7.5 0 1 0 -15 0zM234.92 322.28 a7.5 7.5 0 1 0 15 0 a7.5 7.5 0 1 0 -15 0zM234.92 247.28 a7.5 7.5 0 1 0 15 0 a7.5 7.5 0 1 0 -15 0zM429.78 359.78 a7.5 7.5 0 1 0 15 0 a7.5 7.5 0 1 0 -15 0zM429.78 434.78 a7.5 7.5 0 1 0 15 0 a7.5 7.5 0 1 0 -15 0zM364.83 472.28 a7.5 7.5 0 1 0 15 0 a7.5 7.5 0 1 0 -15 0zM299.88 434.78 a7.5 7.5 0 1 0 15 0 a7.5 7.5 0 1 0 -15 0zM364.83 547.28 a7.5 7.5 0 1 0 15 0 a7.5 7.5 0 1 0 -15 0zM299.88 584.78 a7.5 7.5 0 1 0 15 0 a7.5 7.5 0 1 0 -15 0zM429.78 -15.22 a7.5 7.5 0 1 0 15 0 a7.5 7.5 0 1 0 -15 0zM494.74 22.28 a7.5 7.5 0 1 0 15 0 a7.5 7.5 0 1 0 -15 0zM494.74 97.28 a7.5 7.5 0 1 0 15 0 a7.5 7.5 0 1 0 -15 0zM494.74 247.28 a7.5 7.5 0 1 0 15 0 a7.5 7.5 0 1 0 -15 0zM494.74 322.28 a7.5 7.5 0 1 0 15 0 a7.5 7.5 0 1 0 -15 0zM559.69 359.78 a7.5 7.5 0 1 0 15 0 a7.5 7.5 0 1 0 -15 0zM559.69 434.78 a7.5 7.5 0 1 0 15 0 a7.5 7.5 0 1 0 -15 0zM494.74 472.28 a7.5 7.5 0 1 0 15 0 a7.5 7.5 0 1 0 -15 0zM494.74 547.28 a7.5 7.5 0 1 0 15 0 a7.5 7.5 0 1 0 -15 0zM429.78 584.78 a7.5 7.5 0 1 0 15 0 a7.5 7.5 0 1 0 -15 0zM559.69 584.78 a7.5 7.5 0 1 0 15 0 a7.5 7.5 0 1 0 -15 0zM559.69 659.78 a7.5 7.5 0 1 0 15 0 a7.5 7.5 0 1 0 -15 0zM494.74 697.28 a7.5 7.5 0 1 0 15 0 a7.5 7.5 0 1 0 -15 0zM429.78 659.78 a7.5 7.5 0 1 0 15 0 a7.5 7.5 0 1 0 -15 0zM559.69 -15.22 a7.5 7.5 0 1 0 15 0 a7.5 7.5 0 1 0 -15 0zM624.64 22.28 a7.5 7.5 0 1 0 15 0 a7.5 7.5 0 1 0 -15 0zM624.64 97.28 a7.5 7.5 0 1 0 15 0 a7.5 7.5 0 1 0 -15 0zM559.69 134.78 a7.5 7.5 0 1 0 15 0 a7.5 7.5 0 1 0 -15 0zM689.6 134.78 a7.5 7.5 0 1 0 15 0 a7.5 7.5 0 1 0 -15 0zM689.6 209.78 a7.5 7.5 0 1 0 15 0 a7.5 7.5 0 1 0 -15 0zM624.64 247.28 a7.5 7.5 0 1 0 15 0 a7.5 7.5 0 1 0 -15 0zM559.69 209.78 a7.5 7.5 0 1 0 15 0 a7.5 7.5 0 1 0 -15 0zM624.64 322.28 a7.5 7.5 0 1 0 15 0 a7.5 7.5 0 1 0 -15 0zM689.6 359.78 a7.5 7.5 0 1 0 15 0 a7.5 7.5 0 1 0 -15 0zM689.6 434.78 a7.5 7.5 0 1 0 15 0 a7.5 7.5 0 1 0 -15 0zM624.64 472.28 a7.5 7.5 0 1 0 15 0 a7.5 7.5 0 1 0 -15 0zM624.64 547.28 a7.5 7.5 0 1 0 15 0 a7.5 7.5 0 1 0 -15 0zM689.6 -15.22 a7.5 7.5 0 1 0 15 0 a7.5 7.5 0 1 0 -15 0zM754.55 22.28 a7.5 7.5 0 1 0 15 0 a7.5 7.5 0 1 0 -15 0zM754.55 97.28 a7.5 7.5 0 1 0 15 0 a7.5 7.5 0 1 0 -15 0zM884.46 97.28 a7.5 7.5 0 1 0 15 0 a7.5 7.5 0 1 0 -15 0zM949.41 134.78 a7.5 7.5 0 1 0 15 0 a7.5 7.5 0 1 0 -15 0zM949.41 209.78 a7.5 7.5 0 1 0 15 0 a7.5 7.5 0 1 0 -15 0zM884.46 247.28 a7.5 7.5 0 1 0 15 0 a7.5 7.5 0 1 0 -15 0zM819.5 209.78 a7.5 7.5 0 1 0 15 0 a7.5 7.5 0 1 0 -15 0zM819.5 134.78 a7.5 7.5 0 1 0 15 0 a7.5 7.5 0 1 0 -15 0zM884.46 322.28 a7.5 7.5 0 1 0 15 0 a7.5 7.5 0 1 0 -15 0zM819.5 359.78 a7.5 7.5 0 1 0 15 0 a7.5 7.5 0 1 0 -15 0zM754.55 322.28 a7.5 7.5 0 1 0 15 0 a7.5 7.5 0 1 0 -15 0zM754.55 247.28 a7.5 7.5 0 1 0 15 0 a7.5 7.5 0 1 0 -15 0zM819.5 434.78 a7.5 7.5 0 1 0 15 0 a7.5 7.5 0 1 0 -15 0zM884.46 472.28 a7.5 7.5 0 1 0 15 0 a7.5 7.5 0 1 0 -15 0zM884.46 547.28 a7.5 7.5 0 1 0 15 0 a7.5 7.5 0 1 0 -15 0zM819.5 584.78 a7.5 7.5 0 1 0 15 0 a7.5 7.5 0 1 0 -15 0zM754.55 547.28 a7.5 7.5 0 1 0 15 0 a7.5 7.5 0 1 0 -15 0zM754.55 472.28 a7.5 7.5 0 1 0 15 0 a7.5 7.5 0 1 0 -15 0zM949.41 584.78 a7.5 7.5 0 1 0 15 0 a7.5 7.5 0 1 0 -15 0zM949.41 659.78 a7.5 7.5 0 1 0 15 0 a7.5 7.5 0 1 0 -15 0zM884.46 697.28 a7.5 7.5 0 1 0 15 0 a7.5 7.5 0 1 0 -15 0zM819.5 659.78 a7.5 7.5 0 1 0 15 0 a7.5 7.5 0 1 0 -15 0zM1014.37 97.28 a7.5 7.5 0 1 0 15 0 a7.5 7.5 0 1 0 -15 0zM1079.32 134.78 a7.5 7.5 0 1 0 15 0 a7.5 7.5 0 1 0 -15 0zM1079.32 209.78 a7.5 7.5 0 1 0 15 0 a7.5 7.5 0 1 0 -15 0zM1014.37 247.28 a7.5 7.5 0 1 0 15 0 a7.5 7.5 0 1 0 -15 0zM1014.37 322.28 a7.5 7.5 0 1 0 15 0 a7.5 7.5 0 1 0 -15 0zM1079.32 359.78 a7.5 7.5 0 1 0 15 0 a7.5 7.5 0 1 0 -15 0zM1079.32 434.78 a7.5 7.5 0 1 0 15 0 a7.5 7.5 0 1 0 -15 0zM1014.37 472.28 a7.5 7.5 0 1 0 15 0 a7.5 7.5 0 1 0 -15 0zM949.41 434.78 a7.5 7.5 0 1 0 15 0 a7.5 7.5 0 1 0 -15 0zM949.41 359.78 a7.5 7.5 0 1 0 15 0 a7.5 7.5 0 1 0 -15 0zM1014.37 547.28 a7.5 7.5 0 1 0 15 0 a7.5 7.5 0 1 0 -15 0zM1079.32 584.78 a7.5 7.5 0 1 0 15 0 a7.5 7.5 0 1 0 -15 0zM1079.32 659.78 a7.5 7.5 0 1 0 15 0 a7.5 7.5 0 1 0 -15 0zM1014.37 697.28 a7.5 7.5 0 1 0 15 0 a7.5 7.5 0 1 0 -15 0zM1079.32 -15.22 a7.5 7.5 0 1 0 15 0 a7.5 7.5 0 1 0 -15 0zM1144.27 22.28 a7.5 7.5 0 1 0 15 0 a7.5 7.5 0 1 0 -15 0zM1144.27 97.28 a7.5 7.5 0 1 0 15 0 a7.5 7.5 0 1 0 -15 0zM1014.37 22.28 a7.5 7.5 0 1 0 15 0 a7.5 7.5 0 1 0 -15 0zM1274.18 322.28 a7.5 7.5 0 1 0 15 0 a7.5 7.5 0 1 0 -15 0zM1339.13 359.78 a7.5 7.5 0 1 0 15 0 a7.5 7.5 0 1 0 -15 0zM1339.13 434.78 a7.5 7.5 0 1 0 15 0 a7.5 7.5 0 1 0 -15 0zM1274.18 472.28 a7.5 7.5 0 1 0 15 0 a7.5 7.5 0 1 0 -15 0zM1209.23 434.78 a7.5 7.5 0 1 0 15 0 a7.5 7.5 0 1 0 -15 0zM1209.23 359.78 a7.5 7.5 0 1 0 15 0 a7.5 7.5 0 1 0 -15 0zM1274.18 547.28 a7.5 7.5 0 1 0 15 0 a7.5 7.5 0 1 0 -15 0zM1209.23 584.78 a7.5 7.5 0 1 0 15 0 a7.5 7.5 0 1 0 -15 0zM1144.27 547.28 a7.5 7.5 0 1 0 15 0 a7.5 7.5 0 1 0 -15 0zM1144.27 472.28 a7.5 7.5 0 1 0 15 0 a7.5 7.5 0 1 0 -15 0zM1339.13 584.78 a7.5 7.5 0 1 0 15 0 a7.5 7.5 0 1 0 -15 0zM1339.13 659.78 a7.5 7.5 0 1 0 15 0 a7.5 7.5 0 1 0 -15 0zM1274.18 697.28 a7.5 7.5 0 1 0 15 0 a7.5 7.5 0 1 0 -15 0zM1209.23 659.78 a7.5 7.5 0 1 0 15 0 a7.5 7.5 0 1 0 -15 0zM1339.13 -15.22 a7.5 7.5 0 1 0 15 0 a7.5 7.5 0 1 0 -15 0zM1404.09 22.28 a7.5 7.5 0 1 0 15 0 a7.5 7.5 0 1 0 -15 0zM1404.09 97.28 a7.5 7.5 0 1 0 15 0 a7.5 7.5 0 1 0 -15 0zM1339.13 134.78 a7.5 7.5 0 1 0 15 0 a7.5 7.5 0 1 0 -15 0zM1274.18 97.28 a7.5 7.5 0 1 0 15 0 a7.5 7.5 0 1 0 -15 0zM1274.18 22.28 a7.5 7.5 0 1 0 15 0 a7.5 7.5 0 1 0 -15 0zM1339.13 209.78 a7.5 7.5 0 1 0 15 0 a7.5 7.5 0 1 0 -15 0zM1404.09 247.28 a7.5 7.5 0 1 0 15 0 a7.5 7.5 0 1 0 -15 0zM1404.09 322.28 a7.5 7.5 0 1 0 15 0 a7.5 7.5 0 1 0 -15 0zM1274.18 247.28 a7.5 7.5 0 1 0 15 0 a7.5 7.5 0 1 0 -15 0zM1469.04 359.78 a7.5 7.5 0 1 0 15 0 a7.5 7.5 0 1 0 -15 0zM1469.04 434.78 a7.5 7.5 0 1 0 15 0 a7.5 7.5 0 1 0 -15 0zM1404.09 472.28 a7.5 7.5 0 1 0 15 0 a7.5 7.5 0 1 0 -15 0zM1404.09 547.28 a7.5 7.5 0 1 0 15 0 a7.5 7.5 0 1 0 -15 0zM1469.04 584.78 a7.5 7.5 0 1 0 15 0 a7.5 7.5 0 1 0 -15 0zM1469.04 659.78 a7.5 7.5 0 1 0 15 0 a7.5 7.5 0 1 0 -15 0zM1404.09 697.28 a7.5 7.5 0 1 0 15 0 a7.5 7.5 0 1 0 -15 0zM1534 322.28 a7.5 7.5 0 1 0 15 0 a7.5 7.5 0 1 0 -15 0zM1598.95 359.78 a7.5 7.5 0 1 0 15 0 a7.5 7.5 0 1 0 -15 0zM1598.95 434.78 a7.5 7.5 0 1 0 15 0 a7.5 7.5 0 1 0 -15 0zM1534 472.28 a7.5 7.5 0 1 0 15 0 a7.5 7.5 0 1 0 -15 0zM1534 547.28 a7.5 7.5 0 1 0 15 0 a7.5 7.5 0 1 0 -15 0z" fill="#03305d"></path><path d="M79.98 45.35L123.28 70.35L123.28 120.35L79.98 145.35L36.68 120.35L36.68 70.35zM79.98 195.35L123.28 220.35L123.28 270.35L79.98 295.35L36.68 270.35L36.68 220.35zM36.68 420.35L79.98 445.35L79.98 495.35L36.68 520.35L-6.62 495.35L-6.62 445.35zM123.28 -29.65L166.59 -4.65L166.59 45.35L123.28 70.35L79.98 45.35L79.98 -4.65zM123.28 120.35L166.59 145.35L166.59 195.35L123.28 220.35L79.98 195.35L79.98 145.35zM123.28 270.35L166.59 295.35L166.59 345.35L123.28 370.35L79.98 345.35L79.98 295.35zM253.19 45.35L296.5 70.35L296.5 120.35L253.19 145.35L209.89 120.35L209.89 70.35zM339.8 195.35L383.1 220.35L383.1 270.35L339.8 295.35L296.5 270.35L296.5 220.35zM296.5 270.35L339.8 295.35L339.8 345.35L296.5 370.35L253.19 345.35L253.19 295.35zM296.5 420.35L339.8 445.35L339.8 495.35L296.5 520.35L253.19 495.35L253.19 445.35zM426.4 45.35L469.71 70.35L469.71 120.35L426.4 145.35L383.1 120.35L383.1 70.35zM426.4 195.35L469.71 220.35L469.71 270.35L426.4 295.35L383.1 270.35L383.1 220.35zM383.1 270.35L426.4 295.35L426.4 345.35L383.1 370.35L339.8 345.35L339.8 295.35zM426.4 495.35L469.71 520.35L469.71 570.35L426.4 595.35L383.1 570.35L383.1 520.35zM513.01 345.35L556.31 370.35L556.31 420.35L513.01 445.35L469.71 420.35L469.71 370.35zM556.31 -29.65L599.61 -4.65L599.61 45.35L556.31 70.35L513.01 45.35L513.01 -4.65zM599.61 195.35L642.91 220.35L642.91 270.35L599.61 295.35L556.31 270.35L556.31 220.35zM556.31 270.35L599.61 295.35L599.61 345.35L556.31 370.35L513.01 345.35L513.01 295.35zM642.91 -29.65L686.22 -4.65L686.22 45.35L642.91 70.35L599.61 45.35L599.61 -4.65zM729.52 -29.65L772.82 -4.65L772.82 45.35L729.52 70.35L686.22 45.35L686.22 -4.65zM772.82 495.35L816.13 520.35L816.13 570.35L772.82 595.35L729.52 570.35L729.52 520.35zM859.43 195.35L902.73 220.35L902.73 270.35L859.43 295.35L816.13 270.35L816.13 220.35zM859.43 345.35L902.73 370.35L902.73 420.35L859.43 445.35L816.13 420.35L816.13 370.35zM946.03 45.35L989.34 70.35L989.34 120.35L946.03 145.35L902.73 120.35L902.73 70.35zM946.03 195.35L989.34 220.35L989.34 270.35L946.03 295.35L902.73 270.35L902.73 220.35zM946.03 345.35L989.34 370.35L989.34 420.35L946.03 445.35L902.73 420.35L902.73 370.35zM902.73 420.35L946.03 445.35L946.03 495.35L902.73 520.35L859.43 495.35L859.43 445.35zM1032.64 45.35L1075.94 70.35L1075.94 120.35L1032.64 145.35L989.34 120.35L989.34 70.35zM1032.64 195.35L1075.94 220.35L1075.94 270.35L1032.64 295.35L989.34 270.35L989.34 220.35zM1032.64 495.35L1075.94 520.35L1075.94 570.35L1032.64 595.35L989.34 570.35L989.34 520.35zM1075.94 -29.65L1119.24 -4.65L1119.24 45.35L1075.94 70.35L1032.64 45.35L1032.64 -4.65zM1119.24 495.35L1162.55 520.35L1162.55 570.35L1119.24 595.35L1075.94 570.35L1075.94 520.35zM1205.85 195.35L1249.15 220.35L1249.15 270.35L1205.85 295.35L1162.55 270.35L1162.55 220.35zM1249.15 -29.65L1292.45 -4.65L1292.45 45.35L1249.15 70.35L1205.85 45.35L1205.85 -4.65zM1292.45 195.35L1335.76 220.35L1335.76 270.35L1292.45 295.35L1249.15 270.35L1249.15 220.35zM1335.76 120.35L1379.06 145.35L1379.06 195.35L1335.76 220.35L1292.45 195.35L1292.45 145.35zM1379.06 345.35L1422.36 370.35L1422.36 420.35L1379.06 445.35L1335.76 420.35L1335.76 370.35zM1335.76 420.35L1379.06 445.35L1379.06 495.35L1335.76 520.35L1292.45 495.35L1292.45 445.35zM1465.66 345.35L1508.97 370.35L1508.97 420.35L1465.66 445.35L1422.36 420.35L1422.36 370.35zM1422.36 420.35L1465.66 445.35L1465.66 495.35L1422.36 520.35L1379.06 495.35L1379.06 445.35z" stroke="rgba(6, 80, 156, 0.93)" stroke-width="2"></path></g><defs><mask id="SvgjsMask1000"><rect width="1440" height="560" fill="#ffffff"></rect></mask></defs></svg>