<?xml version="1.0" standalone="no"?>
<!DOCTYPE svg PUBLIC "-//W3C//DTD SVG 20010904//EN"
 "http://www.w3.org/TR/2001/REC-SVG-20010904/DTD/svg10.dtd">
<svg version="1.0" xmlns="http://www.w3.org/2000/svg"
 width="500.000000pt" height="500.000000pt" viewBox="0 0 500.000000 500.000000"
 preserveAspectRatio="xMidYMid meet">
<metadata>
Created by potrace 1.14, written by Peter Selinger 2001-2017
</metadata>
<g transform="translate(0.000000,500.000000) scale(0.100000,-0.100000)"
fill="#000000" stroke="none">
<path d="M2239 4945 c-2 -2 -29 -6 -59 -10 -179 -20 -361 -62 -538 -121 -114
-39 -311 -126 -351 -156 -13 -10 -28 -18 -32 -18 -15 0 -187 -110 -273 -174
-117 -88 -137 -105 -286 -256 -132 -133 -238 -265 -326 -405 -43 -68 -163
-300 -196 -380 -35 -83 -97 -284 -121 -395 -44 -200 -52 -287 -51 -545 0 -115
3 -232 7 -260 13 -95 17 -121 22 -145 3 -14 8 -41 11 -60 7 -37 35 -150 61
-240 63 -222 202 -500 357 -715 166 -231 412 -465 653 -622 46 -29 87 -53 92
-53 5 0 11 -4 13 -8 4 -12 257 -135 343 -167 135 -51 302 -98 420 -120 17 -2
44 -8 60 -11 106 -21 280 -32 445 -29 102 2 196 6 210 8 14 3 48 8 75 11 147
17 374 72 505 123 131 50 167 66 274 120 530 267 950 728 1170 1283 40 102 89
254 100 314 2 11 9 42 15 67 36 159 55 335 55 519 -1 97 -10 265 -18 310 -3
14 -7 43 -10 65 -3 22 -10 65 -16 95 -6 30 -14 66 -16 80 -45 229 -189 564
-343 798 l-81 124 -68 -6 c-87 -8 -191 -20 -277 -32 -63 -9 -102 -14 -160 -19
-33 -4 -67 -8 -75 -10 -8 -2 -40 -7 -70 -10 -30 -3 -62 -8 -70 -10 -8 -2 -40
-7 -70 -10 -48 -5 -126 -16 -210 -30 -14 -2 -45 -7 -70 -10 -25 -3 -67 -10
-95 -15 -27 -5 -67 -12 -87 -15 -90 -12 -114 -16 -128 -20 -8 -3 -33 -7 -55
-11 -119 -18 -473 -91 -625 -129 -417 -103 -636 -201 -689 -307 -59 -120 15
-421 216 -878 72 -163 283 -579 377 -743 46 -82 87 -154 91 -160 24 -47 130
-213 187 -294 107 -151 185 -195 348 -196 249 -1 564 133 1004 426 171 114
426 305 544 407 88 75 105 81 44 14 -20 -23 -48 -54 -62 -70 -78 -91 -229
-264 -260 -298 -19 -21 -39 -44 -45 -50 -109 -121 -185 -206 -205 -227 -220
-234 -295 -312 -401 -418 -312 -312 -518 -482 -674 -557 -86 -42 -126 -43
-183 -5 -85 56 -280 259 -472 491 -446 540 -854 1149 -1115 1665 -166 328
-253 561 -295 790 -14 75 -18 224 -8 290 25 155 122 264 321 359 76 36 244
100 289 111 13 2 75 19 138 35 104 28 168 43 240 56 14 2 36 7 50 10 14 3 39
8 55 11 17 2 55 8 85 13 100 17 165 27 236 35 22 3 55 7 74 9 308 39 514 50
880 50 248 0 406 -6 555 -19 22 -2 80 -6 129 -10 49 -3 103 -7 120 -10 17 -2
63 -7 101 -10 39 -4 81 -9 95 -10 14 -2 52 -6 85 -9 33 -4 74 -9 90 -11 17 -2
53 -7 80 -10 56 -7 89 -11 185 -25 129 -18 165 -23 175 -25 6 -1 33 -5 60 -9
57 -7 94 -14 148 -26 20 -4 37 -5 37 -1 0 6 -43 19 -260 80 -101 29 -414 109
-455 117 -84 16 -117 29 -152 61 -102 94 -366 293 -389 293 -3 0 -18 8 -32 19
-140 97 -530 252 -717 285 -49 8 -89 16 -114 22 -13 3 -45 7 -70 10 -25 2 -57
7 -71 10 -27 7 -475 15 -481 9z m-1520 -1137 c-104 -76 -158 -158 -180 -274
-14 -75 -6 -264 16 -364 97 -441 461 -1129 974 -1840 276 -383 522 -683 735
-896 137 -137 201 -184 243 -176 44 7 15 -13 -37 -27 -25 -6 -55 -9 -67 -7
-98 20 -432 378 -771 824 -626 825 -1062 1614 -1158 2097 -19 97 -24 140 -24
215 0 113 13 181 50 256 33 68 78 113 176 178 80 52 109 61 43 14z"/>
</g>
</svg>
